<svg width="1060" height="1060" viewBox="0 0 1060 1060" fill="none" xmlns="http://www.w3.org/2000/svg">
<path fill-rule="evenodd" clip-rule="evenodd" d="M530 220C557.614 220 580 197.614 580 170C580 142.386 557.614 120 530 120C502.386 120 480 142.386 480 170C480 197.614 502.386 220 530 220ZM820 290C820 317.614 797.614 340 770 340C742.386 340 720 317.614 720 290C720 262.386 742.386 240 770 240C797.614 240 820 262.386 820 290ZM460 410C460 437.614 437.614 460 410 460C382.386 460 360 437.614 360 410C360 382.386 382.386 360 410 360C437.614 360 460 382.386 460 410ZM220 530C220 557.614 197.614 580 170 580C142.386 580 120 557.614 120 530C120 502.386 142.386 480 170 480C197.614 480 220 502.386 220 530ZM340 530C340 557.614 317.614 580 290 580C262.386 580 240 557.614 240 530C240 502.386 262.386 480 290 480C317.614 480 340 502.386 340 530ZM410 580C437.614 580 460 557.614 460 530C460 502.386 437.614 480 410 480C382.386 480 360 502.386 360 530C360 557.614 382.386 580 410 580ZM650 460C677.614 460 700 437.614 700 410C700 382.386 677.614 360 650 360C622.386 360 600 382.386 600 410C600 437.614 622.386 460 650 460ZM290 820C317.614 820 340 797.614 340 770C340 742.386 317.614 720 290 720C262.386 720 240 742.386 240 770C240 797.614 262.386 820 290 820ZM460 650C460 677.614 437.614 700 410 700C382.386 700 360 677.614 360 650C360 622.386 382.386 600 410 600C437.614 600 460 622.386 460 650ZM290 340C317.614 340 340 317.614 340 290C340 262.386 317.614 240 290 240C262.386 240 240 262.386 240 290C240 317.614 262.386 340 290 340ZM822 770C822 797.614 799.614 820 772 820C744.386 820 722 797.614 722 770C722 742.386 744.386 720 772 720C799.614 720 822 742.386 822 770ZM650 700C677.614 700 700 677.614 700 650C700 622.386 677.614 600 650 600C622.386 600 600 622.386 600 650C600 677.614 622.386 700 650 700ZM580 530C580 557.614 557.614 580 530 580C502.386 580 480 557.614 480 530C480 502.386 502.386 480 530 480C557.614 480 580 502.386 580 530ZM530 460C557.614 460 580 437.614 580 410C580 382.386 557.614 360 530 360C502.386 360 480 382.386 480 410C480 437.614 502.386 460 530 460ZM700 530C700 557.614 677.614 580 650 580C622.386 580 600 557.614 600 530C600 502.386 622.386 480 650 480C677.614 480 700 502.386 700 530ZM770 580C797.614 580 820 557.614 820 530C820 502.386 797.614 480 770 480C742.386 480 720 502.386 720 530C720 557.614 742.386 580 770 580ZM940 530C940 557.614 917.614 580 890 580C862.386 580 840 557.614 840 530C840 502.386 862.386 480 890 480C917.614 480 940 502.386 940 530ZM530 820C557.614 820 580 797.614 580 770C580 742.386 557.614 720 530 720C502.386 720 480 742.386 480 770C480 797.614 502.386 820 530 820ZM580 890C580 917.614 557.614 940 530 940C502.386 940 480 917.614 480 890C480 862.386 502.386 840 530 840C557.614 840 580 862.386 580 890ZM530 700C557.614 700 580 677.614 580 650C580 622.386 557.614 600 530 600C502.386 600 480 622.386 480 650C480 677.614 502.386 700 530 700ZM580 290C580 317.614 557.614 340 530 340C502.386 340 480 317.614 480 290C480 262.386 502.386 240 530 240C557.614 240 580 262.386 580 290Z" fill="#06252E"/>
</svg>
